<svg fill="#000000" xmlns="http://www.w3.org/2000/svg"  viewBox="0 0 64 64" width="100px" height="100px"><path d="M 32 10 C 19.85 10 10 19.85 10 32 C 10 44.15 19.85 54 32 54 C 44.15 54 54 44.15 54 32 C 54 19.85 44.15 10 32 10 z M 32 14 C 41.941 14 50 22.059 50 32 C 50 41.941 41.941 50 32 50 C 30.35467 50 28.768122 49.761177 27.253906 49.347656 C 27.731763 48.366133 28.200272 47.292014 28.410156 46.484375 C 28.664156 45.506375 29.712891 41.517578 29.712891 41.517578 C 30.394891 42.816578 32.384953 43.916016 34.501953 43.916016 C 40.802953 43.916016 45.34375 38.121875 45.34375 30.921875 C 45.34375 24.019875 39.710891 18.853516 32.462891 18.853516 C 23.445891 18.853516 18.658203 24.906094 18.658203 31.496094 C 18.658203 34.560094 20.289437 38.376797 22.898438 39.591797 C 23.294438 39.776797 23.506656 39.6945 23.597656 39.3125 C 23.666656 39.0225 24.018734 37.603359 24.177734 36.943359 C 24.228734 36.732359 24.204203 36.55075 24.033203 36.34375 C 23.170203 35.29675 22.478516 33.372172 22.478516 31.576172 C 22.478516 26.968172 25.967109 22.509766 31.912109 22.509766 C 37.045109 22.509766 40.638672 26.007766 40.638672 31.009766 C 40.638672 36.661766 37.783313 40.576172 34.070312 40.576172 C 32.019313 40.576172 30.484562 38.879781 30.976562 36.800781 C 31.565563 34.317781 32.707031 31.638703 32.707031 29.845703 C 32.707031 28.240703 31.846453 26.902344 30.064453 26.902344 C 27.968453 26.902344 26.283203 29.071562 26.283203 31.976562 C 26.283203 33.826562 26.908203 35.078125 26.908203 35.078125 C 26.908203 35.078125 24.838984 43.831891 24.458984 45.462891 C 24.289895 46.18888 24.24354 47.223087 24.238281 48.222656 C 18.188267 45.321945 14 39.157517 14 32 C 14 22.059 22.059 14 32 14 z"/></svg>